# xmcd
#
# Track frame offsets: 
#        150
#        2245
#        30772
#        54727
#        78867
#        125242
#        138717
#        167800
#        187335
#        202847
#        215530
#        235977
#        258625
#        286230
#
# Disc length: 4460 seconds
#
# Revision: 3
# Processed by: cddbd v1.5.2PL0 Copyright (c) Steve Scherf et al.
# Submitted via: ExactAudioCopy v0.99pb5
#
DISCID=cf116a0e
DTITLE=Dean Evenson - Forest Rain
DYEAR=1993
DGENRE=New Age
TTITLE0=Thunder Intro
TTITLE1=Thunder Streams
TTITLE2=Clearning In The Air
TTITLE3=To Tree Or Not To Tree
TTITLE4=Deep Forest
TTITLE5=Mossing Around
TTITLE6=Heart Of The Forest
TTITLE7=Future Stock
TTITLE8=Branching Out
TTITLE9=Joy, Rain, Tree
TTITLE10=Eagle, Salmon, Swirl
TTITLE11=Leaf Well Enough Alone
TTITLE12=Player For The Ancient Trees
TTITLE13=video
EXTD=YEAR: 1993
EXTT0=
EXTT1=
EXTT2=
EXTT3=
EXTT4=
EXTT5=
EXTT6=
EXTT7=
EXTT8=
EXTT9=
EXTT10=
EXTT11=
EXTT12=
EXTT13=
PLAYORDER=
